<?xml version="1.0" standalone="no"?>
<!DOCTYPE svg PUBLIC "-//W3C//DTD SVG 20010904//EN"
 "http://www.w3.org/TR/2001/REC-SVG-20010904/DTD/svg10.dtd">
<svg version="1.0" xmlns="http://www.w3.org/2000/svg"
 width="300.000000pt" height="300.000000pt" viewBox="0 0 300.000000 300.000000"
 preserveAspectRatio="xMidYMid meet">
<metadata>
Created by potrace 1.10, written by Peter Selinger 2001-2011
</metadata>
<g transform="translate(0.000000,300.000000) scale(0.100000,-0.100000)"
fill="#000000" stroke="none">
<path d="M822 1590 c-12 -12 -22 -30 -22 -41 0 -26 43 -69 69 -69 35 0 51 -12
51 -36 0 -13 -3 -24 -7 -25 -5 0 -17 -2 -28 -4 -11 -3 -32 4 -46 14 -24 18
-26 18 -36 2 -9 -15 -6 -21 17 -34 63 -37 140 -12 140 46 0 46 -12 58 -66 72
-37 9 -49 17 -49 31 0 14 8 20 33 22 18 2 39 -2 46 -8 10 -8 15 -6 20 7 16 42
-82 60 -122 23z"/>
<path d="M1020 1530 c-31 -31 -28 -102 6 -129 34 -26 85 -27 108 -2 23 25 3
38 -31 20 -27 -15 -56 -4 -61 25 -3 13 6 16 52 16 55 0 56 1 56 28 0 16 -8 36
-18 45 -26 24 -87 22 -112 -3z m90 -31 c0 -15 -7 -19 -35 -19 -38 0 -48 22
-19 38 24 13 54 3 54 -19z"/>
<path d="M1212 1537 c-6 -7 -16 -26 -22 -41 -13 -36 3 -91 30 -106 30 -16 76
-12 101 9 22 18 22 20 6 26 -9 4 -24 2 -32 -5 -20 -17 -61 -5 -68 20 -5 18 0
20 54 20 55 0 59 2 59 23 0 43 -27 67 -74 67 -24 0 -48 -6 -54 -13z m88 -42
c0 -10 -11 -15 -35 -15 -38 0 -48 22 -18 39 21 11 53 -3 53 -24z"/>
<path d="M1380 1465 c0 -78 2 -85 20 -85 18 0 20 7 20 58 0 60 11 82 42 82 16
0 18 -9 18 -70 0 -67 1 -70 24 -70 22 0 23 3 19 43 -7 58 10 99 40 95 20 -3
22 -9 25 -70 3 -60 5 -68 22 -68 18 0 20 7 20 73 0 43 -5 78 -12 85 -17 17
-75 15 -86 -4 -8 -14 -10 -14 -21 0 -16 19 -62 21 -79 4 -9 -9 -12 -9 -12 0 0
7 -9 12 -20 12 -18 0 -20 -7 -20 -85z"/>
<path d="M1684 1536 c-15 -12 -16 -17 -7 -27 10 -10 15 -10 27 0 18 15 58 11
63 -6 3 -7 -8 -15 -24 -18 -59 -13 -73 -23 -73 -54 0 -35 20 -53 56 -49 35 4
45 28 11 28 -49 0 -40 39 12 55 22 7 24 5 18 -23 -7 -32 15 -62 46 -62 21 0
22 26 2 34 -12 4 -15 18 -14 55 2 29 -3 56 -10 65 -17 20 -81 21 -107 2z"/>
<path d="M1860 1465 c0 -78 2 -85 20 -85 16 0 19 8 22 61 3 65 19 88 52 76 12
-5 16 -20 16 -72 0 -58 2 -65 20 -65 18 0 20 7 20 73 0 82 -9 97 -55 97 -17 0
-36 -5 -43 -12 -9 -9 -12 -9 -12 0 0 7 -9 12 -20 12 -18 0 -20 -7 -20 -85z"/>
<path d="M2067 1536 c-15 -11 -15 -15 -3 -25 10 -8 16 -9 21 -1 3 5 19 10 36
10 38 0 39 -27 2 -36 -45 -10 -73 -33 -73 -57 0 -30 18 -47 50 -47 14 0 31 5
38 12 9 9 15 9 24 0 17 -17 48 -15 48 3 0 8 -4 15 -10 15 -5 0 -10 23 -10 51
0 72 -12 89 -63 89 -23 0 -50 -7 -60 -14z m79 -112 c-3 -8 -17 -14 -31 -14
-36 0 -34 35 3 48 29 9 40 -3 28 -34z"/>
</g>
</svg>
